HIERARCHY
ROOT Hips
{
	OFFSET	0	0	0
	CHANNELS 6  Xposition Yposition Zposition Xrotation Yrotation Zrotation
	JOINT Spine
	{
		OFFSET	0	6.86795	1.37906
		CHANNELS 3  Xrotation Yrotation Zrotation
		JOINT Spine1
		{
			OFFSET	0	11.7606	-2.1001
			CHANNELS 3  Xrotation Yrotation Zrotation
			JOINT Spine2
			{
				OFFSET	0	8.91491	0.955545
				CHANNELS 3  Xrotation Yrotation Zrotation
				JOINT Spine3
				{
					OFFSET	0	10.6685	3.17115
					CHANNELS 3  Xrotation Yrotation Zrotation
					JOINT Spine4
					{
						OFFSET	0	15.7927	-1.61708
						CHANNELS 3  Xrotation Yrotation Zrotation
						JOINT Neck
						{
							OFFSET	0	7.53935	-5.28175
							CHANNELS 3  Xrotation Yrotation Zrotation
							JOINT Head
							{
								OFFSET	0	9.05142	-2.70913
								CHANNELS 3  Xrotation Yrotation Zrotation
								End Site
								{
									OFFSET	0	18.8799	-0.913543
								}
							}
						}
					}
					JOINT LeftShoulder
					{
						OFFSET	-4.53621	19.1949	-9.05142
						CHANNELS 3  Xrotation Yrotation Zrotation
						JOINT LeftArm
						{
							OFFSET	-9.8955	-2.70912	3.47568
							CHANNELS 3  Xrotation Yrotation Zrotation
							JOINT LeftForeArm
							{
								OFFSET	-33.3495	-1.52213	2.38045
								CHANNELS 3  Xrotation Yrotation Zrotation
								JOINT LeftHand
								{
									OFFSET	-27.054	-1.86958	1.93108
									CHANNELS 3  Xrotation Yrotation Zrotation
									End Site
									{
										OFFSET	-9.87335	-0.682306	0.704704
									}
								}
							}
						}
					}
					JOINT RightShoulder
					{
						OFFSET	4.53621	19.1949	-9.05142
						CHANNELS 3  Xrotation Yrotation Zrotation
						JOINT RightArm
						{
							OFFSET	9.8955	-2.70912	3.47568
							CHANNELS 3  Xrotation Yrotation Zrotation
							JOINT RightForeArm
							{
								OFFSET	33.3495	-1.52213	2.38045
								CHANNELS 3  Xrotation Yrotation Zrotation
								JOINT RightHand
								{
									OFFSET	27.054	-1.86958	1.93108
									CHANNELS 3  Xrotation Yrotation Zrotation
									End Site
									{
										OFFSET	9.87335	-0.682306	0.704704
									}
								}
							}
						}
					}
				}
			}
		}
	}
	JOINT LeftUpLeg
	{
		OFFSET	-9.35843	-3.43397	-0.689532
		CHANNELS 3  Xrotation Yrotation Zrotation
		JOINT LeftLeg
		{
			OFFSET	-2.06148	-40.3938	-0.631444
			CHANNELS 3  Xrotation Yrotation Zrotation
			JOINT LeftFoot
			{
				OFFSET	-2.01493	-37.1416	3.19418
				CHANNELS 3  Xrotation Yrotation Zrotation
				JOINT LeftToeBase
				{
					OFFSET	0	-4.59973	-12.2169
					CHANNELS 3  Xrotation Yrotation Zrotation
					End Site
					{
						OFFSET	0	-1.83989	-7.35956
					}
				}
			}
		}
	}
	JOINT RightUpLeg
	{
		OFFSET	9.35843	-3.43397	-0.689532
		CHANNELS 3  Xrotation Yrotation Zrotation
		JOINT RightLeg
		{
			OFFSET	2.06148	-40.3938	-0.631444
			CHANNELS 3  Xrotation Yrotation Zrotation
			JOINT RightFoot
			{
				OFFSET	2.01493	-37.1416	3.19418
				CHANNELS 3  Xrotation Yrotation Zrotation
				JOINT RightToeBase
				{
					OFFSET	0	-4.59973	-12.2169
					CHANNELS 3  Xrotation Yrotation Zrotation
					End Site
					{
						OFFSET	0	-1.83989	-7.35956
					}
				}
			}
		}
	}
}
MOTION
Frames: 13
Frame Time: 0.020408
 94.6841 89.299 -109.96 174.659 -31.4152 179.741 180 179.991 -179.537 0.512828 0.0179871 0.772212 0.382207 0.0539612 0.772213 179.952 179.991 -179.537 1.08197 0.00291632 0.154415 2.63703 -3.42625 5.27891 0.797072 -11.6066 0.770828 1.40746 -19.035 3.02578 167.083 -138.688 -124.607 0.659909 -36.4537 -1.46915 -0 -30.6975 -12.1138 0.596914 -6.54974 -1.07544 172.867 169.365 121.31 38.7569 42.6677 -26.4781 -0 34.7395 -4.36742 15.6741 -9.36361 0.667624 154.734 -179.593 179.826 177.046 179.999 175.636 163.155 180 -180 166.353 -161.507 168.843 166.64 177.94 179.613 5.59334 0.0210833 1.92048 165.357 180 -180
 95.2415 89.3896 -108 174.237 -33.2299 179.718 180 179.983 -179.516 0.509589 0.0332855 0.807434 0.373029 0.0998564 0.807435 179.933 179.983 -179.516 1.11937 0.00315473 0.161456 2.74761 -3.52295 5.49207 0.831911 -12.0154 0.81132 1.30969 -20.8862 2.82731 170.181 -137.848 -123.636 0.608278 -38.871 -1.53695 -0 -31.3299 -12.2202 0.273964 -6.43484 -0.494217 169.57 169.394 120.511 36.1497 40.2419 -23.0689 -0 33.5633 -4.86598 13.7239 -9.40787 -0.071066 155.676 178.801 -179.963 178.628 -179.925 175.246 163.162 180 -180 167.453 -160.733 169.567 162.463 178.394 179.52 5.06874 0.0172094 1.66705 165.38 180 -180
 95.7356 89.7475 -106.511 174.04 -34.3079 -179.996 180 179.983 -179.553 0.497 0.0345672 0.744344 0.387622 0.103702 0.744345 0.00605756 0.0172845 0.446606 0.925175 0.00240374 0.148849 2.22393 -3.88884 5.50362 0.666883 -12.5909 0.748938 1.03171 -22.4424 2.23298 172.984 -137.288 -123.078 0.507919 -42.0953 -1.61033 -0 -32.2376 -12.3437 179.907 -173.82 -179.831 165.931 168.925 119.567 33.7007 37.8634 -20.2221 -0 32.5516 -5.6953 11.3268 -9.44288 -1.01762 158.369 177.495 179.984 178.872 -179.906 174.882 163.173 180 -180 169.236 -159.78 170.487 158.138 178.782 179.485 2.89377 0.019383 1.33536 165.399 180 -180
 95.9696 90.1632 -105.104 173.99 -34.8387 -179.46 180 179.99 -179.612 0.500191 0.0201577 0.646773 0.424981 0.060473 0.646773 0.109278 0.0100792 0.388064 0.690094 0.00155796 0.129345 1.60439 -4.6724 5.00174 0.460889 -13.3026 0.51486 0.720587 -23.5866 1.56181 175.339 -136.869 -122.253 0.359626 -45.5536 -1.65841 -0 -33.1662 -12.3946 179.599 -174.527 -179.268 162.491 167.823 118.696 31.2768 35.5796 -17.5825 -0 31.4572 -6.92271 9.01215 -9.59788 -2.27097 161.456 176.415 -179.988 178.481 -179.913 174.539 163.189 180 -180 171.256 -158.316 170.974 154.202 179.144 179.383 179.985 179.939 -179.064 165.415 180 -180
 96.116 90.5753 -103.523 173.734 -34.9906 -178.766 180 179.99 -179.665 0.498558 0.0208454 0.558107 0.443635 0.0625361 0.558107 0.168894 0.010423 0.334864 0.547876 0.00106734 0.111616 1.26747 -5.62878 4.15555 0.337085 -13.9768 0.193161 0.367791 -24.0515 0.797497 177.718 -136.734 -121.657 0.226976 -50.1416 -1.70624 -0 -34.5047 -12.5313 179.394 -175.323 -178.885 159.421 166.621 117.693 28.5562 32.4759 -14.3644 -0 30.1546 -8.33079 6.54001 -9.78992 -3.75703 164.129 175.575 179.98 178.228 -179.927 174.242 163.237 180 -180 173.018 -156.477 171.382 149.812 179.762 179.542 175.458 179.927 -179.444 165.427 180 -180
 96.2643 90.9285 -101.908 173.541 -35.2626 -178.187 180 179.995 -179.713 0.500667 0.0104502 0.477743 0.466309 0.0313507 0.477743 0.231258 0.00522523 0.286646 0.406206 0.000677399 0.0955461 0.919928 -6.55602 3.41301 0.212088 -14.7441 -0.10424 179.883 -155.006 179.746 178.835 -136.364 -121.332 179.918 -125.993 178.129 -0 -35.7703 -12.4494 179.243 -176.577 -178.589 156.819 165.215 117.059 26.1111 29.5428 -11.6555 -0 28.8503 -9.79924 3.68319 -10.0042 -5.32771 167.144 175.083 179.99 178.179 -179.912 173.992 163.295 180 -180 175.341 -154.499 172.152 146.191 -179.353 179.877 171.153 179.889 -179.755 165.438 180 -180
 96.4404 91.1627 -100.873 173.531 -34.8087 -177.436 180 179.997 -179.829 0.499815 0.00516515 0.28485 0.511409 0.0154954 0.28485 0.368157 0.00258259 0.17091 0.0850919 8.46081e-05 0.05697 0.051166 -7.54386 2.29913 179.928 -164.714 179.484 179.705 -154.058 179.36 0.506301 -43.5856 58.75 179.61 -123.069 177.832 -0 -36.6595 -12.4446 179.114 -177.625 -178.329 155.214 163.569 116.546 24.0495 27.2196 -9.6426 -0 27.6792 -11.2735 1.01799 -10.0911 -6.71256 170.754 175.082 -179.911 177.828 -179.962 173.864 163.343 180 -180 178.174 -152.236 173.455 143.276 -177.929 179.972 167.798 179.893 -179.916 165.446 180 -180
 96.5689 91.3337 -99.8417 173.473 -34.1162 -176.891 180 179.998 -179.939 0.498899 0.00332305 0.102179 0.560884 0.00996916 0.102179 0.518592 0.00166153 0.0613074 179.732 -180 -179.98 179.053 -171.897 -178.676 179.614 -164.673 179.154 179.497 -153.152 178.907 1.9645 -43.6002 58.7875 179.195 -120.22 177.508 -0 -37.4869 -12.3484 178.94 -178.463 -177.984 154.129 162.105 116.257 22.4443 25.8418 -8.28353 -0 26.8324 -12.5525 178.594 -169.894 172.186 173.737 175.19 -179.986 177.486 179.996 173.762 163.384 180 -180 1.32944 -30.2007 -5.27503 140.907 -176.195 -179.863 164.957 -179.966 -179.968 165.453 180 -180
 96.8046 91.3756 -98.8835 173.449 -34.2973 -176.698 8.42233e-07 0.00312457 -0.0154442 0.500831 0.00624914 -0.0257403 0.606048 0.0187474 -0.0257403 0.64952 0.00312457 -0.0154442 179.43 180 179.995 178.188 -171.467 -179.479 179.345 -164.635 178.883 179.347 -152.891 178.581 3.03716 -43.3946 59.1284 178.899 -117.346 177.227 -0 -38.216 -12.3052 178.802 -178.795 -177.716 152.75 161.038 116.009 21.076 24.8196 -7.30237 -0 26.1239 -13.6473 176.695 -169.911 171.46 176.238 175.312 -179.947 177.267 179.994 173.714 163.418 180 -180 4.16537 -31.7221 -3.89755 139.018 -174.67 -179.565 162.854 -179.949 -179.982 165.459 180 -180
 97.0104 91.494 -97.8933 173.548 -33.8727 -176.52 5.1844e-06 0.00322283 -0.0921687 0.488479 0.00644564 -0.153615 0.620167 0.0193369 -0.153615 0.720607 0.00322283 -0.0921687 179.241 180 179.969 177.659 -171.208 -179.885 179.18 -164.51 178.735 179.262 -152.931 178.397 3.48777 -43.0539 59.5979 178.729 -115.103 177.104 -0 -38.6983 -12.2973 178.688 -179.126 -177.488 151.433 160.105 115.66 19.9873 24.4056 -6.64529 -0 25.6545 -14.5916 175.027 -170.031 171.012 178.217 175.419 -179.915 176.916 179.964 173.718 163.448 180 -180 7.58616 -32.7969 -2.36301 138.365 -173.345 -179.703 161.879 -179.924 -179.971 165.465 180 -180
 97.2372 91.5796 -96.8658 174.05 -33.489 -176.209 1.56136e-06 0.000525642 -0.17019 0.472186 0.00105128 -0.28365 0.61481 0.00315383 -0.28365 0.74263 0.000525642 -0.17019 179.159 179.999 179.943 177.455 -170.858 179.932 179.11 -164.043 178.634 179.22 -153.131 178.306 3.8471 -42.8712 60.3142 178.673 -112.626 177.006 -0 -39.046 -12.3154 178.644 -179.893 -177.386 150.161 159.042 115.276 19.0671 24.4838 -6.33288 -0 25.3372 -15.5479 173.758 -170.094 170.674 179.854 175.713 -179.997 176.731 179.95 173.797 163.473 180 -180 10.6076 -33.0978 -0.712582 138.387 -172.264 -179.682 161.259 -179.992 -179.941 165.47 180 -180
 97.5421 91.6604 -96.3109 174.549 -33.0492 -176.021 180 -179.996 179.751 0.445232 -0.00803693 -0.414692 0.614942 -0.0241108 -0.414692 0.806323 -0.00401853 -0.248815 178.96 179.998 179.917 176.925 -170.537 179.82 178.938 -163.504 178.533 179.205 -153.745 178.272 4.48882 -42.7406 61.168 179.028 -109.632 177.318 -0 -39.3495 -12.5136 178.582 179.436 -177.251 149.118 158.406 115.262 18.3647 24.8272 -5.95387 -0 25.2615 -16.2141 173.28 -170.346 170.779 1.12075 4.01319 -0.0851678 176.15 179.941 173.874 163.494 180 -180 13.1225 -32.7093 0.505989 140.034 -171.139 -179.746 162.595 180 -179.83 165.478 180 -180
 97.8681 91.5963 -95.4719 174.995 -33.1284 -176.254 180 -179.997 179.694 0.413154 -0.00506027 -0.509713 0.594786 -0.0151808 -0.509713 0.820617 -0.0025302 -0.305828 178.866 179.998 179.898 176.699 -170.306 179.77 178.861 -163.108 178.474 179.154 -154.366 178.162 4.72994 -42.4382 61.569 179.703 -107.268 177.943 -0 -39.5568 -12.8094 178.58 178.979 -177.236 148.326 157.96 115.183 17.8437 25.2237 -5.86183 -0 25.2989 -16.6182 172.846 -170.458 171.224 2.23885 3.76961 -0.148802 176.112 179.962 173.947 163.533 180 -180 15.2383 -32.1357 1.53935 142.425 -170.295 -179.807 164.239 179.997 -179.764 165.484 180 -180
